<svg version="1.1" id="Layer_1" xmlns="http://www.w3.org/2000/svg" xmlns:xlink="http://www.w3.org/1999/xlink" x="0px" y="0px"
	 width="100%" viewBox="0 0 968 450" enable-background="new 0 0 968 450" xml:space="preserve">
<path fill="#79A0D7" opacity="1.000000" stroke="none" 
	d="
M969.000000,333.000000 
	C969.000000,372.319550 969.000000,411.639099 969.000000,450.940399 
	C646.333313,450.940399 323.666656,450.940399 1.000000,450.940399 
	C1.000000,403.897217 1.000000,356.913605 1.415050,309.430511 
	C4.300180,308.619659 6.776065,308.016235 9.238984,308.065216 
	C12.964392,308.139221 15.258522,306.901855 16.035589,303.029205 
	C16.232067,302.050018 17.534605,301.292786 18.328878,300.433563 
	C18.876760,301.529633 20.021362,302.740997 19.836929,303.695557 
	C19.537457,305.245544 18.498575,306.723145 17.527195,308.052551 
	C16.592241,309.332062 15.347064,310.384918 15.120624,310.620270 
	C17.364014,312.328430 19.079088,313.344330 20.423058,314.722198 
	C22.728546,317.085846 24.327637,320.665222 27.065422,321.978119 
	C34.232738,325.415161 41.769630,328.161835 49.332279,330.659698 
	C53.013184,331.875458 57.168400,332.738617 60.956173,332.333435 
	C70.326828,331.331177 79.074287,332.091705 87.530693,336.748779 
	C92.967728,339.743011 98.610123,342.920502 105.371651,341.689697 
	C108.692566,341.085175 112.056374,340.716309 115.907303,340.168793 
	C115.115456,338.477264 114.482422,337.646667 114.362045,336.747406 
	C114.174538,335.346741 114.335159,333.899506 114.348251,332.471985 
	C115.533752,333.285889 116.850838,333.963928 117.869247,334.950348 
	C118.975479,336.021820 119.551422,337.905060 120.804291,338.507721 
	C123.707176,339.903961 126.819130,341.015076 129.964264,341.701080 
	C131.797852,342.100983 134.417740,342.169159 135.713654,341.151337 
	C139.706345,338.015320 142.595001,339.419769 145.853516,342.216827 
	C149.128372,345.027893 155.541626,345.006897 157.062790,341.888794 
	C159.230392,337.445557 162.675629,337.582001 166.291748,338.235687 
	C169.280136,338.775970 171.369370,338.357635 174.002213,336.470367 
	C178.536758,333.219940 183.786560,333.251038 189.220596,335.215332 
	C193.181046,336.646912 197.635727,338.114349 201.645187,337.644928 
	C206.442444,337.083313 209.771698,338.653229 212.876526,341.506836 
	C215.282410,343.718079 217.380905,344.451355 220.419907,342.579926 
	C221.372772,341.993103 223.639862,342.576416 224.752396,343.385010 
	C228.855576,346.367218 232.727066,349.668152 236.685684,352.849243 
	C237.270477,352.320435 237.855255,351.791626 238.440048,351.262848 
	C236.506256,348.270538 234.572464,345.278229 232.726685,342.422150 
	C236.350464,339.291504 240.444260,335.454681 244.878296,332.062622 
	C246.822723,330.575134 249.433121,329.260986 251.791229,329.170258 
	C255.595352,329.023865 258.500702,328.504211 260.215088,324.584747 
	C260.835571,323.166138 262.732178,322.305695 263.157440,321.944855 
	C266.550079,323.381500 268.940643,324.393799 271.331238,325.406128 
	C269.757050,321.835754 266.909698,319.454071 273.242889,319.215057 
	C274.435181,319.170074 275.980774,316.940247 276.593231,315.410339 
	C277.993469,311.912384 279.269196,308.982422 284.022034,310.668823 
	C284.834137,310.956940 286.217560,309.508209 287.383331,308.960327 
	C288.654449,308.362823 289.939789,307.572540 291.287659,307.398468 
	C298.459106,306.472321 305.665710,305.813141 312.830597,304.843628 
	C315.455109,304.488464 317.998566,303.534821 321.360809,302.648010 
	C318.896423,299.278870 316.722687,296.925140 315.351440,294.171753 
	C314.665192,292.793854 315.443115,290.686768 315.558838,288.909485 
	C317.331055,289.436798 319.168854,289.812012 320.854980,290.538971 
	C322.234070,291.133606 323.386902,292.778229 324.718048,292.874115 
	C333.756226,293.525208 342.852814,293.535583 351.851166,294.496246 
	C356.262024,294.967194 358.032074,293.987823 358.291016,289.585907 
	C358.358063,288.445740 359.802917,286.667053 360.824127,286.505676 
	C361.837341,286.345520 363.341888,287.661865 364.209717,288.687195 
	C365.027802,289.653778 365.201813,291.136810 365.834564,292.296967 
	C366.478149,293.477020 367.335907,294.540253 368.099884,295.654633 
	C369.002838,294.790619 369.838135,293.839233 370.820679,293.077942 
	C374.666412,290.098267 378.901642,284.375641 382.364746,284.799408 
	C390.460449,285.790100 400.109863,281.550568 406.722778,289.959259 
	C407.474213,290.914703 408.934448,291.488403 410.179016,291.847626 
	C414.039215,292.961761 414.368683,295.529724 413.528656,298.880035 
	C411.712891,306.121979 412.306549,306.814178 420.160950,307.099426 
	C420.822540,305.862549 421.491638,304.611572 422.685730,302.379120 
	C424.109192,304.820312 425.093597,306.508545 425.844849,307.796936 
	C429.818481,308.457306 433.560608,309.839722 437.143677,309.507416 
	C443.490509,308.918762 444.163483,309.250305 443.935486,315.621765 
	C443.877502,317.242371 445.142029,318.910278 445.798889,320.556458 
	C447.169189,319.415558 449.326263,318.510742 449.753540,317.086853 
	C450.790527,313.630890 452.441162,313.892151 454.940704,315.224121 
	C456.551270,316.082367 458.245453,317.077667 459.996735,317.315643 
	C463.468750,317.787445 467.775421,321.347656 469.975830,315.188263 
	C470.127533,314.763672 472.206696,314.426849 472.476105,314.768799 
	C473.057617,315.506897 473.502625,316.916321 473.164276,317.678467 
	C472.699097,318.726227 471.456909,319.429047 470.506714,320.317871 
	C471.593506,321.466156 472.432556,322.352661 473.644043,323.632660 
	C470.861298,324.539368 468.626556,325.267517 465.442657,326.304932 
	C469.276031,329.935211 472.469635,329.457764 475.846405,327.613708 
	C479.957336,325.368713 483.697052,324.873474 487.624054,328.519623 
	C489.958466,330.687073 494.049255,330.905975 494.261749,335.369049 
	C494.295258,336.073090 496.381439,336.683228 497.522491,337.329834 
	C498.946014,338.136444 500.671082,338.656219 501.740540,339.793762 
	C504.346252,342.565521 505.789398,342.456177 507.478058,338.817596 
	C509.504547,334.451263 513.889954,335.999817 517.297913,336.238068 
	C518.638428,336.331818 519.818542,338.778931 521.063110,340.162018 
	C521.876831,341.066223 522.510864,342.283722 523.514404,342.833832 
	C525.604248,343.979492 527.885925,344.775299 530.148499,345.740356 
	C533.936523,340.114166 546.243469,340.172760 551.273376,346.075562 
	C554.883667,350.312439 559.093750,350.163727 562.264404,345.789490 
	C562.764099,345.100067 564.223389,344.184906 564.480774,344.379059 
	C568.400818,347.337036 571.590942,345.738190 575.122009,343.425110 
	C576.300293,342.653229 579.080811,342.969208 580.319458,343.883942 
	C585.496948,347.707550 590.689331,350.809113 597.459839,348.629028 
	C597.596252,348.585114 597.783020,348.687775 597.943787,348.731171 
	C604.065674,350.383942 610.463379,347.312683 616.734680,350.478851 
	C620.200317,352.228577 625.059082,351.047485 628.797607,352.475800 
	C632.631531,353.940491 635.268616,352.746368 638.626953,351.486053 
	C642.176331,350.154053 646.777039,348.743530 649.971863,349.925659 
	C657.408508,352.677185 664.228760,351.417236 671.365417,349.640686 
	C677.108826,348.210938 682.906799,346.699615 688.769287,346.115997 
	C698.804077,345.116943 708.489258,350.544250 718.737488,348.194519 
	C719.750183,347.962311 721.073486,349.241394 722.294617,349.709351 
	C723.177673,350.047729 724.828857,350.598022 724.949463,350.384033 
	C727.684082,345.533783 732.503052,348.069000 736.220764,347.419830 
	C742.497070,346.323883 749.011353,345.824036 755.359680,346.196686 
	C759.150269,346.419189 762.588074,348.153931 765.430725,344.098785 
	C766.006897,343.276825 767.855896,343.219330 769.149475,343.050720 
	C774.090576,342.406616 779.047913,341.887634 783.992981,341.272766 
	C791.541992,340.334106 794.556946,342.609680 796.195496,349.945129 
	C796.652588,351.991364 798.184631,353.797485 798.982361,355.268890 
	C801.585510,354.143433 803.783447,352.330627 804.942993,352.847504 
	C809.028992,354.668854 811.540161,352.758728 814.348389,350.395691 
	C815.382202,349.525848 817.080078,349.426300 818.488953,349.024323 
	C824.709717,347.249237 829.641602,354.861023 836.166870,351.525635 
	C836.420898,351.395782 837.469238,352.834961 838.156433,353.534210 
	C840.117981,355.530029 841.032532,354.777924 841.992004,352.439301 
	C842.766602,350.551361 844.229797,347.574615 845.446411,347.545502 
	C847.518372,347.495911 850.080750,348.947357 851.643494,350.544586 
	C854.957886,353.932129 860.725586,355.500092 864.792603,352.936798 
	C862.449646,350.783173 860.341858,348.570007 857.949829,346.725494 
	C855.617188,344.926849 855.933533,343.461700 858.088989,342.085663 
	C859.270874,341.331177 860.697937,340.960724 862.014404,340.417145 
	C861.942444,340.919922 861.870483,341.422668 861.798523,341.925446 
	C863.757324,342.915588 865.888367,344.899658 867.623474,344.598938 
	C869.166748,344.331482 870.544128,341.673431 871.504883,339.817017 
	C872.909790,337.102356 873.876831,334.161163 875.227539,330.830719 
	C881.176880,336.895844 886.935791,341.882721 891.611572,347.734985 
	C899.156311,357.178009 909.685608,359.654205 920.547119,362.106445 
	C926.131104,363.367218 930.475159,361.569794 934.074951,357.847046 
	C937.983765,353.804779 941.109619,348.994385 945.091003,345.036072 
	C950.804871,339.355286 951.868225,332.972900 949.784668,325.511139 
	C948.802368,321.993225 951.051575,319.126617 954.149536,320.340393 
	C957.446594,321.632111 962.167419,325.060913 962.231995,327.657013 
	C962.376343,333.458221 965.539856,332.815033 969.000000,333.000000 
z"/>
<path fill="#7097D1" opacity="1.000000" stroke="none" 
	d="
M969.000000,332.531342 
	C965.539856,332.815033 962.376343,333.458221 962.231995,327.657013 
	C962.167419,325.060913 957.446594,321.632111 954.149536,320.340393 
	C951.051575,319.126617 948.802368,321.993225 949.784668,325.511139 
	C951.868225,332.972900 950.804871,339.355286 945.091003,345.036072 
	C941.109619,348.994385 937.983765,353.804779 934.074951,357.847046 
	C930.475159,361.569794 926.131104,363.367218 920.547119,362.106445 
	C909.685608,359.654205 899.156311,357.178009 891.611572,347.734985 
	C886.935791,341.882721 881.176880,336.895844 875.227539,330.830719 
	C873.876831,334.161163 872.909790,337.102356 871.504883,339.817017 
	C870.544128,341.673431 869.166748,344.331482 867.623474,344.598938 
	C865.888367,344.899658 863.757324,342.915588 861.798523,341.925446 
	C861.870483,341.422668 861.942444,340.919922 862.014404,340.417145 
	C860.697937,340.960724 859.270874,341.331177 858.088989,342.085663 
	C855.933533,343.461700 855.617188,344.926849 857.949829,346.725494 
	C860.341858,348.570007 862.449646,350.783173 864.792603,352.936798 
	C860.725586,355.500092 854.957886,353.932129 851.643494,350.544586 
	C850.080750,348.947357 847.518372,347.495911 845.446411,347.545502 
	C844.229797,347.574615 842.766602,350.551361 841.992004,352.439301 
	C841.032532,354.777924 840.117981,355.530029 838.156433,353.534210 
	C837.469238,352.834961 836.420898,351.395782 836.166870,351.525635 
	C829.641602,354.861023 824.709717,347.249237 818.488953,349.024323 
	C817.080078,349.426300 815.382202,349.525848 814.348389,350.395691 
	C811.540161,352.758728 809.028992,354.668854 804.942993,352.847504 
	C803.783447,352.330627 801.585510,354.143433 798.982361,355.268890 
	C798.184631,353.797485 796.652588,351.991364 796.195496,349.945129 
	C794.556946,342.609680 791.541992,340.334106 783.992981,341.272766 
	C779.047913,341.887634 774.090576,342.406616 769.149475,343.050720 
	C767.855896,343.219330 766.006897,343.276825 765.430725,344.098785 
	C762.588074,348.153931 759.150269,346.419189 755.359680,346.196686 
	C749.011353,345.824036 742.497070,346.323883 736.220764,347.419830 
	C732.503052,348.069000 727.684082,345.533783 724.949463,350.384033 
	C724.828857,350.598022 723.177673,350.047729 722.294617,349.709351 
	C721.073486,349.241394 719.750183,347.962311 718.737488,348.194519 
	C708.489258,350.544250 698.804077,345.116943 688.769287,346.115997 
	C682.906799,346.699615 677.108826,348.210938 671.365417,349.640686 
	C664.228760,351.417236 657.408508,352.677185 649.971863,349.925659 
	C646.777039,348.743530 642.176331,350.154053 638.626953,351.486053 
	C635.268616,352.746368 632.631531,353.940491 628.797607,352.475800 
	C625.059082,351.047485 620.200317,352.228577 616.734680,350.478851 
	C610.463379,347.312683 604.065674,350.383942 597.943787,348.731171 
	C597.783020,348.687775 597.596252,348.585114 597.459839,348.629028 
	C590.689331,350.809113 585.496948,347.707550 580.319458,343.883942 
	C579.080811,342.969208 576.300293,342.653229 575.122009,343.425110 
	C571.590942,345.738190 568.400818,347.337036 564.480774,344.379059 
	C564.223389,344.184906 562.764099,345.100067 562.264404,345.789490 
	C559.093750,350.163727 554.883667,350.312439 551.273376,346.075562 
	C546.243469,340.172760 533.936523,340.114166 530.148499,345.740356 
	C527.885925,344.775299 525.604248,343.979492 523.514404,342.833832 
	C522.510864,342.283722 521.876831,341.066223 521.063110,340.162018 
	C519.818542,338.778931 518.638428,336.331818 517.297913,336.238068 
	C513.889954,335.999817 509.504547,334.451263 507.478058,338.817596 
	C505.789398,342.456177 504.346252,342.565521 501.740540,339.793762 
	C500.671082,338.656219 498.946014,338.136444 497.522491,337.329834 
	C496.381439,336.683228 494.295258,336.073090 494.261749,335.369049 
	C494.049255,330.905975 489.958466,330.687073 487.624054,328.519623 
	C483.697052,324.873474 479.957336,325.368713 475.846405,327.613708 
	C472.469635,329.457764 469.276031,329.935211 465.442657,326.304932 
	C468.626556,325.267517 470.861298,324.539368 473.644043,323.632660 
	C472.432556,322.352661 471.593506,321.466156 470.506714,320.317871 
	C471.456909,319.429047 472.699097,318.726227 473.164276,317.678467 
	C473.502625,316.916321 473.057617,315.506897 472.476105,314.768799 
	C472.206696,314.426849 470.127533,314.763672 469.975830,315.188263 
	C467.775421,321.347656 463.468750,317.787445 459.996735,317.315643 
	C458.245453,317.077667 456.551270,316.082367 454.940704,315.224121 
	C452.441162,313.892151 450.790527,313.630890 449.753540,317.086853 
	C449.326263,318.510742 447.169189,319.415558 445.798889,320.556458 
	C445.142029,318.910278 443.877502,317.242371 443.935486,315.621765 
	C444.163483,309.250305 443.490509,308.918762 437.143677,309.507416 
	C433.560608,309.839722 429.818481,308.457306 425.844849,307.796936 
	C425.093597,306.508545 424.109192,304.820312 422.685730,302.379120 
	C421.491638,304.611572 420.822540,305.862549 420.160950,307.099426 
	C412.306549,306.814178 411.712891,306.121979 413.528656,298.880035 
	C414.368683,295.529724 414.039215,292.961761 410.179016,291.847626 
	C408.934448,291.488403 407.474213,290.914703 406.722778,289.959259 
	C400.109863,281.550568 390.460449,285.790100 382.364746,284.799408 
	C378.901642,284.375641 374.666412,290.098267 370.820679,293.077942 
	C369.838135,293.839233 369.002838,294.790619 368.099884,295.654633 
	C367.335907,294.540253 366.478149,293.477020 365.834564,292.296967 
	C365.201813,291.136810 365.027802,289.653778 364.209717,288.687195 
	C363.341888,287.661865 361.837341,286.345520 360.824127,286.505676 
	C359.802917,286.667053 358.358063,288.445740 358.291016,289.585907 
	C358.032074,293.987823 356.262024,294.967194 351.851166,294.496246 
	C342.852814,293.535583 333.756226,293.525208 324.718048,292.874115 
	C323.386902,292.778229 322.234070,291.133606 320.854980,290.538971 
	C319.168854,289.812012 317.331055,289.436798 315.558838,288.909485 
	C315.443115,290.686768 314.665192,292.793854 315.351440,294.171753 
	C316.722687,296.925140 318.896423,299.278870 321.360809,302.648010 
	C317.998566,303.534821 315.455109,304.488464 312.830597,304.843628 
	C305.665710,305.813141 298.459106,306.472321 291.287659,307.398468 
	C289.939789,307.572540 288.654449,308.362823 287.383331,308.960327 
	C286.217560,309.508209 284.834137,310.956940 284.022034,310.668823 
	C279.269196,308.982422 277.993469,311.912384 276.593231,315.410339 
	C275.980774,316.940247 274.435181,319.170074 273.242889,319.215057 
	C266.909698,319.454071 269.757050,321.835754 271.331238,325.406128 
	C268.940643,324.393799 266.550079,323.381500 263.157440,321.944855 
	C262.732178,322.305695 260.835571,323.166138 260.215088,324.584747 
	C258.500702,328.504211 255.595352,329.023865 251.791229,329.170258 
	C249.433121,329.260986 246.822723,330.575134 244.878296,332.062622 
	C240.444260,335.454681 236.350464,339.291504 232.726685,342.422150 
	C234.572464,345.278229 236.506256,348.270538 238.440048,351.262848 
	C237.855255,351.791626 237.270477,352.320435 236.685684,352.849243 
	C232.727066,349.668152 228.855576,346.367218 224.752396,343.385010 
	C223.639862,342.576416 221.372772,341.993103 220.419907,342.579926 
	C217.380905,344.451355 215.282410,343.718079 212.876526,341.506836 
	C209.771698,338.653229 206.442444,337.083313 201.645187,337.644928 
	C197.635727,338.114349 193.181046,336.646912 189.220596,335.215332 
	C183.786560,333.251038 178.536758,333.219940 174.002213,336.470367 
	C171.369370,338.357635 169.280136,338.775970 166.291748,338.235687 
	C162.675629,337.582001 159.230392,337.445557 157.062790,341.888794 
	C155.541626,345.006897 149.128372,345.027893 145.853516,342.216827 
	C142.595001,339.419769 139.706345,338.015320 135.713654,341.151337 
	C134.417740,342.169159 131.797852,342.100983 129.964264,341.701080 
	C126.819130,341.015076 123.707176,339.903961 120.804291,338.507721 
	C119.551422,337.905060 118.975479,336.021820 117.869247,334.950348 
	C116.850838,333.963928 115.533752,333.285889 114.348251,332.471985 
	C114.335159,333.899506 114.174538,335.346741 114.362045,336.747406 
	C114.482422,337.646667 115.115456,338.477264 115.907303,340.168793 
	C112.056374,340.716309 108.692566,341.085175 105.371651,341.689697 
	C98.610123,342.920502 92.967728,339.743011 87.530693,336.748779 
	C79.074287,332.091705 70.326828,331.331177 60.956173,332.333435 
	C57.168400,332.738617 53.013184,331.875458 49.332279,330.659698 
	C41.769630,328.161835 34.232738,325.415161 27.065422,321.978119 
	C24.327637,320.665222 22.728546,317.085846 20.423058,314.722198 
	C19.079088,313.344330 17.364014,312.328430 15.120624,310.620270 
	C15.347064,310.384918 16.592241,309.332062 17.527195,308.052551 
	C18.498575,306.723145 19.537457,305.245544 19.836929,303.695557 
	C20.021362,302.740997 18.876760,301.529633 18.328878,300.433563 
	C17.534605,301.292786 16.232067,302.050018 16.035589,303.029205 
	C15.258522,306.901855 12.964392,308.139221 9.238984,308.065216 
	C6.776065,308.016235 4.300180,308.619659 1.415050,308.965515 
	C1.000000,235.979111 1.000000,162.958206 1.345080,89.385971 
	C2.143240,88.628258 2.650505,88.494896 3.041398,88.204758 
	C10.907536,82.366089 13.897593,83.593529 15.037277,93.174530 
	C15.463774,96.759972 16.889940,98.068161 20.743959,96.786133 
	C27.075941,94.679825 33.391838,97.404472 35.552208,102.390366 
	C42.185600,103.691879 48.606247,104.951653 54.258327,106.060623 
	C55.222744,107.770035 56.192345,109.144791 56.797321,110.664688 
	C57.325516,111.991676 57.830200,113.537216 57.638325,114.885612 
	C57.426041,116.377380 56.410183,117.754814 55.402988,119.913544 
	C58.218681,119.334366 60.180832,118.930763 62.776352,118.396873 
	C63.214993,122.907669 63.349842,127.055641 64.134499,131.076813 
	C64.473709,132.815170 66.152718,135.651749 67.226730,135.653412 
	C72.064087,135.660873 73.957924,138.420883 74.571556,141.309067 
	C77.192383,142.555008 79.589951,142.940338 80.549667,144.323410 
	C82.086441,146.538101 83.089699,149.341904 83.553032,152.028687 
	C84.169792,155.605118 85.811119,159.458145 82.049866,162.659927 
	C79.770271,164.600449 80.432999,166.558853 82.756500,168.396393 
	C85.204330,170.332260 88.652809,172.309784 89.355255,174.896179 
	C91.319977,182.130173 94.964714,185.948532 102.743904,185.166870 
	C103.618385,185.079010 104.601715,186.074463 105.678154,186.643448 
	C104.716888,188.282593 103.998566,189.507492 103.261276,190.764725 
	C106.174789,194.518585 109.935478,195.264969 114.104836,195.008133 
	C117.848122,194.777542 119.698860,196.149933 121.362068,200.034882 
	C123.708542,205.515854 126.941727,211.274170 133.238586,213.376694 
	C137.451599,214.783401 141.980164,215.410110 146.421082,215.912247 
	C149.476181,216.257690 150.844269,217.420074 151.096451,220.499710 
	C151.363541,223.761597 152.447556,226.494141 156.759399,225.404846 
	C157.463852,225.226883 158.543091,225.455231 159.095383,225.917953 
	C164.942154,230.816513 170.901184,227.131088 176.619263,225.894272 
	C180.675507,225.016876 188.523666,226.161957 189.405319,229.334457 
	C190.588409,233.591675 193.434586,234.326508 197.002625,233.959900 
	C201.293488,233.518982 204.527222,235.028091 206.676971,238.683960 
	C209.019455,242.667648 212.275421,244.684555 216.975967,244.035904 
	C222.329880,243.297104 227.719391,242.751083 233.026123,241.760605 
	C236.083786,241.189896 238.736465,240.357834 241.083054,243.501343 
	C241.766830,244.417343 244.356964,244.916962 245.446518,244.366608 
	C255.597977,239.239014 266.778503,242.388763 277.279541,240.248322 
	C278.123230,240.076370 279.294220,241.510132 280.313110,242.197723 
	C279.585602,243.100906 279.030884,244.501633 278.101715,244.824341 
	C273.073547,246.570724 275.770050,248.525436 277.869171,251.291702 
	C278.918793,249.803329 279.440948,248.522812 280.390106,247.814499 
	C283.731598,245.320953 287.167358,241.141724 290.663025,241.044525 
	C297.911774,240.842987 304.622192,236.200943 304.723236,230.617035 
	C309.547363,227.069229 313.463867,224.144455 317.439972,221.303162 
	C318.217255,220.747711 319.282593,220.091202 320.118835,220.202789 
	C326.356812,221.035080 332.570557,222.048996 339.728699,223.150101 
	C339.777924,223.093948 340.803436,221.924088 342.601013,219.873459 
	C342.601013,223.126968 342.601013,225.243500 342.601013,228.169312 
	C346.325165,226.246109 349.229858,224.307449 352.426117,223.250183 
	C354.546509,222.548767 357.649841,222.207565 359.334412,223.264755 
	C365.684509,227.249893 372.481415,225.603271 378.470428,224.105682 
	C386.599854,222.072891 393.761932,225.102371 395.216980,233.522552 
	C399.124390,234.564102 402.429108,233.958893 405.750275,231.140884 
	C407.456818,229.692841 411.560181,228.447189 412.651215,229.376068 
	C416.269073,232.456314 419.844238,232.245071 423.854919,231.304489 
	C431.111450,229.602707 438.402527,228.042358 445.634094,226.241898 
	C451.056824,224.891785 452.824768,225.747162 453.979797,231.360016 
	C454.545959,234.110947 455.770447,235.111725 458.469666,234.379944 
	C460.535767,233.819794 462.859955,233.760544 464.656555,232.746872 
	C469.029785,230.279419 473.178345,230.834213 477.618256,232.426895 
	C479.847778,233.226685 482.377869,233.167068 484.759888,233.568283 
	C488.226929,234.152298 491.976166,234.154846 495.080566,235.562241 
	C500.897125,238.199203 505.346558,237.429062 509.457001,232.537064 
	C511.110870,230.568756 513.516357,229.159729 515.763794,227.800446 
	C516.583557,227.304642 518.279724,227.232452 518.986023,227.758789 
	C521.522644,229.649109 524.308167,231.527985 526.074158,234.057358 
	C529.024780,238.283401 532.686096,237.644913 536.146606,235.976257 
	C545.320312,231.552780 553.436157,236.058289 561.833313,238.442062 
	C562.260681,238.563385 562.586853,239.081558 562.933533,239.440674 
	C565.965759,242.581680 569.457214,244.242569 574.027893,244.101395 
	C578.591553,243.960449 582.389893,245.658569 584.454285,250.335861 
	C584.987183,251.543350 586.888489,252.839096 588.213013,252.896347 
	C599.670776,253.391663 611.140259,253.621445 622.607056,253.894119 
	C623.247864,253.909378 624.017761,253.778183 624.522156,253.423248 
	C628.978027,250.287628 632.500549,250.213226 633.931396,256.443237 
	C635.887268,255.707642 637.414429,255.069412 638.983032,254.557999 
	C641.449097,253.753983 642.653076,254.620346 643.009338,257.289246 
	C643.646179,262.060303 651.268433,270.317230 655.980225,270.731842 
	C659.314941,271.025299 663.893433,271.244141 665.917175,269.354706 
	C669.745850,265.780029 672.902039,265.882019 677.119812,267.677216 
	C678.845703,268.411804 681.107849,267.811249 682.943848,268.393036 
	C683.919006,268.702026 685.364258,270.581482 685.130737,271.170624 
	C683.147766,276.172760 684.612305,278.730988 689.971924,278.985016 
	C693.289856,279.142303 697.361572,278.083923 699.768250,279.632751 
	C704.353699,282.583740 708.996765,281.660370 713.693848,282.023132 
	C716.977356,282.276672 718.916626,281.172058 720.045166,277.858765 
	C720.568176,276.323242 722.397766,274.842651 723.988953,274.148254 
	C726.689270,272.969818 729.813293,272.754547 732.500183,271.554565 
	C736.804810,269.632080 739.037354,270.689880 740.032349,275.310638 
	C740.804138,278.895233 742.994385,279.416748 745.495911,276.782776 
	C746.267151,275.970673 746.729858,274.835480 747.225525,273.796570 
	C750.359924,267.227325 751.664001,265.943939 758.766174,267.213745 
	C764.164124,268.178833 768.793152,268.875153 773.613464,265.268005 
	C779.097412,261.164337 785.499878,258.249420 790.800903,253.951752 
	C795.469055,250.167206 806.393860,249.238068 811.025818,253.378922 
	C819.337402,260.809326 819.327026,260.793091 828.972046,254.625671 
	C829.719849,254.147507 830.753845,253.922775 831.657776,253.915024 
	C836.872375,253.870178 842.091980,254.059494 847.301636,253.900421 
	C850.714783,253.796249 851.793335,251.343277 850.432190,248.686264 
	C848.256104,244.438446 849.630981,243.028656 853.888672,242.609543 
	C855.061462,242.494095 856.041626,240.892456 857.255066,240.621490 
	C859.730225,240.068787 862.479309,239.240784 864.801270,239.809479 
	C869.988037,241.079819 870.586609,241.065094 870.963013,235.767502 
	C871.259827,231.589920 872.515930,230.425934 876.596985,232.600037 
	C882.867615,235.940552 887.383911,234.366928 889.840637,227.657364 
	C891.814941,222.265396 896.726196,225.910858 899.682495,223.788406 
	C899.937988,223.605042 902.343079,225.726562 903.141113,227.124771 
	C905.090393,230.539780 907.008850,230.912399 909.604065,227.855576 
	C912.072937,224.947571 914.224487,221.414169 917.343994,219.520477 
	C920.143005,217.821381 924.243408,217.029144 927.441650,217.618073 
	C929.977112,218.084961 931.828186,222.169724 935.159180,218.877930 
	C939.661194,222.930771 941.264832,218.652374 943.582214,216.056763 
	C944.354736,215.191544 945.640259,214.784332 946.747437,214.134750 
	C949.350159,220.111969 954.377136,223.818298 957.851257,222.685547 
	C961.236206,221.581894 962.525024,217.690720 961.029053,211.852997 
	C963.942566,213.003281 966.471252,214.001648 969.000000,215.000000 
	C969.000000,254.020889 969.000000,293.041779 969.000000,332.531342 
M888.963013,304.465271 
	C885.185120,309.882843 882.713501,315.408234 883.682678,322.504364 
	C885.161011,333.327118 891.336731,341.134644 898.834290,348.007599 
	C905.842041,354.431549 918.420593,353.603241 925.353333,347.210754 
	C927.029297,345.665344 929.043579,344.437561 931.032654,343.289581 
	C939.090942,338.638855 941.947021,332.713440 939.805298,324.536652 
	C939.434631,323.121674 938.802002,321.679901 937.943665,320.503601 
	C932.480164,313.016541 926.961304,305.568420 921.339233,298.200165 
	C920.607910,297.241699 919.181519,296.236023 918.073730,296.232208 
	C907.856567,296.197083 897.444275,295.660217 888.963013,304.465271 
M263.370331,253.014221 
	C265.811920,250.900314 268.253540,248.786407 271.703217,245.799698 
	C267.259003,245.275574 263.251099,243.126358 261.534912,247.229187 
	C259.664642,251.700348 256.781586,252.141190 252.918793,252.032898 
	C251.214859,251.985138 249.501068,252.288757 247.476074,252.459473 
	C250.381287,257.452881 256.210236,257.588898 263.370331,253.014221 
M210.832993,322.364899 
	C209.757156,322.925354 208.681320,323.485779 207.605484,324.046234 
	C207.683365,324.407623 207.761230,324.769043 207.839111,325.130432 
	C212.383621,325.130432 216.928146,325.130432 222.821350,325.130432 
	C218.647339,321.544098 215.760880,318.870178 210.832993,322.364899 
M52.230343,114.390228 
	C48.252205,112.458031 46.790985,114.129501 46.717319,118.960777 
	C48.996052,118.721550 51.016373,118.618156 52.949291,118.152168 
	C53.161781,118.100945 52.872959,115.970245 52.230343,114.390228 
M799.288391,256.571381 
	C798.493530,256.085358 797.681763,255.180542 796.907715,255.211624 
	C795.751526,255.258072 794.525879,255.819916 793.540222,256.477814 
	C793.251221,256.670746 793.454346,258.453339 793.814758,258.606506 
	C794.883850,259.060822 796.198669,259.356934 797.310242,259.147064 
	C798.080383,259.001648 798.673096,257.916779 799.288391,256.571381 
M794.690796,264.318146 
	C794.980530,265.078064 795.270203,265.837982 795.559937,266.597900 
	C796.171143,265.992157 796.782349,265.386414 797.393616,264.780670 
	C796.629883,264.482544 795.866089,264.184387 794.690796,264.318146 
M310.916473,239.494232 
	C310.875671,238.839081 310.834839,238.183945 310.794037,237.528809 
	C310.136749,237.832260 309.479462,238.135712 308.822144,238.439148 
	C309.341980,238.862228 309.861816,239.285324 310.916473,239.494232 
M382.671661,229.095444 
	C382.884369,229.057404 383.097046,229.019379 383.309753,228.981354 
	C383.100067,228.930893 382.890350,228.880432 382.671661,229.095444 
M241.904587,253.671600 
	C241.942627,253.884323 241.980652,254.097031 242.018677,254.309753 
	C242.069153,254.100037 242.119614,253.890335 241.904587,253.671600 
M305.672974,293.095001 
	C305.884827,293.057159 306.096649,293.019348 306.308502,292.981506 
	C306.099670,292.931213 305.890839,292.880920 305.672974,293.095001 
z"/>
<path fill="#688DC9" opacity="1.000000" stroke="none" 
	d="
M27.000000,1.000000 
	C69.687561,1.000000 112.375122,1.000000 155.462906,1.350151 
	C155.539536,3.851045 159.728470,12.783880 161.557678,13.317543 
	C162.546021,13.605884 164.074753,13.522798 164.814560,12.928580 
	C168.209442,10.201798 171.786560,11.308566 175.307999,12.183350 
	C178.806564,13.052447 182.446136,13.807467 185.592911,15.442119 
	C187.098892,16.224426 187.721893,18.876120 188.530090,20.772644 
	C189.072159,22.044691 188.832077,23.984118 189.699387,24.677473 
	C190.389572,25.229227 192.218292,24.204359 193.555634,24.128962 
	C196.924927,23.939007 202.238052,22.519114 203.315262,24.040226 
	C206.620071,28.706808 212.676849,32.206257 211.662994,39.471741 
	C211.443420,41.045357 212.873505,43.386269 214.243942,44.547226 
	C218.971268,48.552002 220.013779,50.972313 217.843796,56.656509 
	C216.710159,59.626019 217.615616,61.043995 220.391693,61.875473 
	C221.330978,62.156803 222.359756,62.457489 223.093018,63.059471 
	C230.552292,69.183083 238.755676,68.465790 247.246658,65.921043 
	C253.159271,64.149025 259.128479,62.565884 266.303192,60.553085 
	C265.277344,63.391155 264.645752,64.562531 264.480530,65.796356 
	C264.368713,66.631706 264.912781,67.554878 265.163483,68.438774 
	C266.026764,68.182198 267.348846,68.192101 267.678009,67.625320 
	C269.653229,64.224464 271.658813,65.657616 273.776825,67.338898 
	C276.403290,69.423798 275.287506,71.152870 273.531403,73.167213 
	C272.817505,73.986069 272.398560,75.763290 272.808807,76.667183 
	C273.233582,77.603081 275.133850,78.795807 275.856110,78.513504 
	C279.427582,77.117477 282.806763,75.236229 286.288177,73.599380 
	C287.600159,72.982521 289.650787,71.726791 290.257935,72.195610 
	C293.191803,74.461159 296.750488,76.533653 296.053894,81.291557 
	C295.829834,82.821747 296.232574,84.443703 296.270813,84.964523 
	C299.782684,84.964523 302.911865,84.098900 305.162109,85.137535 
	C310.502075,87.602272 317.610291,84.957062 321.679199,90.962494 
	C322.117096,91.608772 323.509064,91.924820 324.429688,91.873833 
	C328.739807,91.635117 331.739105,93.174408 333.601776,97.272911 
	C334.034424,98.224884 336.067139,98.646454 337.442993,98.939316 
	C343.824829,100.297745 347.380310,95.406845 351.881256,92.439163 
	C353.778503,91.188225 356.464081,90.012527 358.534119,90.355408 
	C364.584930,91.357643 371.410126,89.753929 376.409943,95.032898 
	C376.924011,95.575684 378.302490,95.277023 379.273590,95.413345 
	C385.789001,96.327850 392.343262,97.039673 398.801147,98.260529 
	C402.461609,98.952553 405.413757,99.344414 408.124542,95.874413 
	C410.490936,92.845215 413.839844,92.123009 416.366882,95.934845 
	C420.826843,102.662331 427.207153,102.954849 434.053802,101.437630 
	C440.254333,100.063591 445.322510,102.900269 450.648560,105.148659 
	C453.460388,106.335693 456.406158,107.412865 459.396820,107.927330 
	C466.477417,109.145348 474.020264,107.436859 480.695618,111.443474 
	C481.533997,111.946686 482.942535,111.539993 484.084106,111.490822 
	C487.967560,111.323524 493.387512,109.430176 495.427948,111.278679 
	C500.422516,115.803452 505.777435,116.702965 511.843353,116.854256 
	C512.930969,116.881378 514.062744,117.564781 515.065979,118.135361 
	C520.058167,120.974770 525.014160,123.877762 529.177490,126.291435 
	C532.268799,124.467812 534.832947,121.638893 536.993286,121.919456 
	C544.456116,122.888687 551.931458,124.461472 559.100037,126.750534 
	C563.896240,128.282043 567.185852,129.102371 568.847595,123.091980 
	C569.226135,121.722763 570.946655,120.466400 572.344604,119.688423 
	C575.746155,117.795380 578.122559,119.440659 578.532227,123.313370 
	C578.677307,124.684807 579.655029,126.427399 580.784546,127.080536 
	C581.592102,127.547470 583.521179,126.798706 584.543396,126.042725 
	C588.554626,123.076118 590.265442,123.607964 592.050720,128.490143 
	C592.470825,129.639114 593.189819,131.192810 594.147400,131.548798 
	C600.919250,134.066315 607.645081,137.097672 615.175781,135.970032 
	C619.561279,135.313354 624.342285,135.222656 625.395935,129.256668 
	C625.531494,128.489349 627.068848,127.426697 627.888245,127.483856 
	C628.628723,127.535500 629.281067,128.928146 629.961914,129.738159 
	C630.825439,130.765488 631.506226,132.152466 632.605652,132.692307 
	C633.193542,132.981003 635.195496,131.981812 635.361755,131.280045 
	C636.482361,126.551918 639.558167,127.131691 643.099365,127.817986 
	C645.350647,128.254288 647.751587,128.036301 650.078186,127.938683 
	C653.714478,127.786087 655.933350,126.274956 656.083801,122.168808 
	C656.215332,118.579506 662.246826,112.018921 665.688477,111.281166 
	C666.439026,111.120262 667.380066,111.255928 668.087219,111.577003 
	C674.640991,114.552750 681.456970,110.406494 688.047913,112.331390 
	C688.401123,112.434532 688.982666,111.998581 689.371277,111.700592 
	C693.651794,108.418381 698.063416,108.688805 703.050720,110.270020 
	C708.614197,112.033905 714.510254,111.529526 719.238159,107.860138 
	C722.462585,105.357582 724.827271,101.745125 727.566772,98.620461 
	C731.133423,94.552414 733.856323,94.562225 738.907349,96.505859 
	C742.879272,98.034225 747.429138,98.632881 751.711670,98.589882 
	C754.809509,98.558777 757.258423,96.476891 754.367859,92.853340 
	C752.585205,90.618721 753.922546,89.674080 755.581543,88.068184 
	C759.445923,84.327438 762.087219,88.289314 766.353088,89.822891 
	C765.107422,86.674217 764.264465,84.543488 763.593140,82.846611 
	C764.639832,81.120186 765.301697,79.503685 766.428040,78.334770 
	C767.348511,77.379539 768.887634,76.303978 770.040649,76.417442 
	C774.300293,76.836624 778.546570,77.576279 782.732544,78.493607 
	C785.499268,79.099937 787.021301,78.234894 789.144714,76.263901 
	C793.410583,72.304253 798.676697,69.944954 804.895325,70.504189 
	C808.732605,70.849281 812.630188,70.537086 816.463501,70.906189 
	C817.855164,71.040192 820.103455,72.133842 820.261292,73.074722 
	C820.546997,74.777618 819.325195,76.676407 819.178955,78.528641 
	C819.079895,79.782509 819.501709,82.067970 820.107849,82.219162 
	C823.058777,82.955307 826.459534,79.368866 826.338745,76.167107 
	C826.305603,75.287430 826.674072,74.392593 826.918457,73.214516 
	C828.056335,73.555794 828.807373,73.832596 829.582092,73.998749 
	C830.341003,74.161537 831.124146,74.211617 831.896606,74.311172 
	C831.688843,73.809723 831.481018,73.308273 831.273254,72.806824 
	C833.744141,71.465218 836.197388,70.089943 838.689575,68.789185 
	C843.549133,66.252777 850.923706,68.346146 852.785522,59.792480 
	C855.261536,62.721542 858.362183,64.705742 858.572937,66.960190 
	C859.164795,73.289146 862.555725,72.160454 866.028259,70.385674 
	C869.185852,68.771843 871.987061,66.448044 874.903564,64.378273 
	C877.896851,62.254040 880.837646,60.055840 883.805298,57.895302 
	C884.870789,57.119518 885.859924,55.959347 887.042908,55.700310 
	C888.318481,55.420975 889.780334,55.991749 891.160889,56.191658 
	C890.560852,57.305805 889.839172,58.373524 889.391724,59.545906 
	C888.835938,61.002270 888.506958,62.545185 888.080017,64.050728 
	C889.708557,63.826351 891.373474,63.743069 892.955078,63.336185 
	C894.411499,62.961510 895.797791,61.721661 897.181030,61.773159 
	C900.455750,61.895081 903.699463,62.802933 906.975525,62.949314 
	C913.406250,63.236652 915.487976,65.601768 914.950439,72.094109 
	C914.785461,74.085777 915.295715,76.143867 915.655090,78.143089 
	C915.677368,78.267410 917.752747,78.179626 917.755676,78.127907 
	C917.868713,76.110420 917.851562,74.085632 917.851562,73.017952 
	C921.026062,69.434708 923.718445,66.395615 926.733521,62.992321 
	C926.724915,62.856995 926.589722,62.193310 926.661194,61.552647 
	C926.812317,60.196148 927.071289,58.851665 927.286011,57.502251 
	C928.730164,58.063766 930.241394,58.498917 931.600891,59.220047 
	C933.157959,60.046009 934.671143,61.015320 936.031494,62.131721 
	C937.051880,62.969002 937.800537,64.137375 938.670166,65.158333 
	C937.451172,65.694984 936.169250,66.785446 935.025879,66.655716 
	C932.456665,66.364197 930.714294,67.179764 931.266174,69.666054 
	C931.559143,70.985596 934.174194,73.086098 934.967896,72.786453 
	C939.913513,70.919220 944.887695,68.865044 949.338989,66.058479 
	C951.680176,64.582390 951.159058,62.233601 947.989563,60.926559 
	C943.217590,58.958672 942.473145,56.796925 943.827332,54.115490 
	C947.027222,53.435520 949.302429,53.185684 951.406372,52.447582 
	C954.230103,51.456951 956.833862,49.450077 959.693604,49.058262 
	C962.696350,48.646866 965.889832,49.627625 969.000000,50.000000 
	C969.000000,79.687561 969.000000,109.375122 968.554382,139.531342 
	C966.442932,140.011841 964.771301,139.939453 963.112427,140.052948 
	C959.568359,140.295380 958.304260,141.879425 959.965393,145.355469 
	C960.615295,146.715317 960.808899,148.293198 961.210327,149.771759 
	C959.507690,149.800385 957.726135,150.155960 956.123718,149.769196 
	C954.389343,149.350616 952.885925,148.045410 951.165894,147.478897 
	C948.958130,146.751740 946.623718,145.887894 944.363281,145.939087 
	C937.475037,146.095123 930.590515,146.590363 923.716919,147.114746 
	C921.753357,147.264557 918.933899,147.310471 918.050537,148.525925 
	C914.732544,153.091202 910.656494,151.776337 906.381531,151.110016 
	C902.952209,150.575500 900.106445,151.126938 899.748840,155.699081 
	C899.668213,156.729401 897.487122,157.712112 896.142334,158.491318 
	C894.988953,159.159607 892.585693,159.448059 892.555603,160.003067 
	C892.250793,165.633972 889.641174,168.566177 883.868835,168.482193 
	C883.463379,168.476303 882.934448,168.919006 882.658447,169.296219 
	C879.962830,172.979385 876.029541,172.772598 872.775146,171.263290 
	C871.021790,170.450104 870.401428,167.193985 869.034729,164.592468 
	C866.332336,164.592468 862.775940,164.592468 859.132812,164.592468 
	C859.756775,166.115005 861.050842,167.726730 860.738586,168.917130 
	C860.380249,170.283127 857.876465,172.449265 857.547302,172.246857 
	C854.591187,170.429153 852.607300,172.220856 850.181152,173.368378 
	C848.614807,174.109207 846.335144,174.300842 844.695984,173.762268 
	C837.727295,171.472580 832.015991,175.460861 826.577820,178.051834 
	C820.592957,180.903290 814.741150,183.827484 808.347107,185.632080 
	C801.499146,187.564835 794.589722,189.338730 787.880188,191.678131 
	C784.684143,192.792496 782.083862,194.471344 778.624695,192.069138 
	C777.052612,190.977432 774.105652,190.457748 772.429138,191.179916 
	C766.671631,193.659943 761.526123,195.851151 755.404114,191.341110 
	C753.126465,189.663193 748.910950,190.615738 745.257202,190.344894 
	C744.049805,191.263336 742.454834,192.911072 740.518372,193.866684 
	C735.098816,196.541077 729.203857,198.395660 724.124573,201.576614 
	C718.743713,204.946365 713.813416,205.950699 708.277344,202.880005 
	C705.776855,201.493057 703.451050,200.730362 701.078613,203.274231 
	C700.421692,203.978561 698.877808,204.530930 698.019958,204.262146 
	C692.803894,202.627777 687.668457,200.735977 682.409241,198.896225 
	C681.343079,200.736008 680.599243,203.949829 678.917786,204.553925 
	C674.141907,206.269745 668.927734,206.712555 663.987671,208.036011 
	C655.590698,210.285583 649.649536,204.052719 643.060364,201.310333 
	C637.905823,199.165039 636.527344,200.402237 634.032349,203.751251 
	C633.094543,205.010101 631.245056,205.589798 629.811218,206.479111 
	C629.202332,205.041519 628.664612,203.568481 627.970398,202.173325 
	C626.264954,198.745483 625.310181,194.212738 622.543823,192.217606 
	C618.514893,189.311890 613.229126,188.025726 608.339355,186.496170 
	C606.320190,185.864532 603.938538,186.391464 601.199158,186.391464 
	C603.008850,192.418762 599.353577,195.419785 595.966309,198.275803 
	C594.982422,199.105377 592.097107,199.284210 591.338257,198.518219 
	C586.048401,193.178726 579.941284,193.041229 572.903931,193.629471 
	C567.076721,194.116592 560.104065,195.129990 556.850037,187.196915 
	C555.528381,183.974701 551.813599,184.451599 548.408142,187.399429 
	C547.020874,188.600235 545.247925,189.355484 542.476318,191.017639 
	C543.345947,188.359665 543.648499,187.434830 543.951111,186.509995 
	C543.521912,186.864044 543.092712,187.218079 542.663574,187.572128 
	C538.897583,184.901459 535.164246,182.182968 531.348694,179.585068 
	C529.940552,178.626328 527.498352,176.888611 526.958313,177.315582 
	C522.593750,180.766113 517.605347,176.657562 513.207092,178.761047 
	C512.350220,179.170853 510.524200,178.903656 509.908081,178.240234 
	C506.782654,174.874863 502.734924,175.611908 498.894653,175.393524 
	C498.517517,175.372040 498.114441,175.807358 497.575348,176.115204 
	C498.468414,177.267349 499.244812,178.268997 500.426514,179.793518 
	C497.073792,179.793518 494.486084,179.739731 491.901642,179.808685 
	C489.326599,179.877365 486.683990,179.743103 484.198059,180.282852 
	C480.393280,181.108948 477.154572,180.618027 473.830597,178.452988 
	C472.536530,177.610077 469.937927,177.593994 468.518311,178.329651 
	C463.247986,181.060898 458.720154,177.659180 455.181458,175.604874 
	C451.662384,173.561981 449.212769,173.169006 445.668365,174.189560 
	C440.387024,175.710236 434.903412,172.478760 434.224396,167.186783 
	C433.674316,162.900040 431.793579,163.029984 428.454620,163.917953 
	C425.372803,164.737534 422.075439,164.764618 418.867401,165.083969 
	C417.384888,165.231537 415.889587,165.285187 414.398926,165.308075 
	C412.063995,165.343933 409.728119,165.317581 406.212036,165.317581 
	C404.839966,165.650681 402.267365,166.275223 400.553314,166.691345 
	C399.339142,168.960617 398.731934,171.726440 397.377380,172.160614 
	C396.067444,172.580505 393.987854,170.599258 392.235107,169.666733 
	C390.267426,171.095856 388.317169,173.234222 385.905975,174.125000 
	C379.313141,176.560577 375.476624,170.406387 370.616943,168.017197 
	C367.703552,166.584869 365.883881,165.774673 363.146057,167.253143 
	C361.095917,168.360245 359.094482,169.794235 356.890564,170.309921 
	C354.897339,170.776306 352.659149,170.195740 349.704834,170.030823 
	C351.723846,167.273544 352.801208,165.802246 354.100372,164.028061 
	C348.739502,163.194809 348.295380,163.478867 344.372375,169.842010 
	C336.933441,166.180450 330.751465,167.478821 326.273224,175.043274 
	C325.222961,176.817261 309.521057,177.094452 307.621490,176.215897 
	C304.721893,174.874817 301.635406,173.850021 298.534760,173.056320 
	C295.528687,172.286865 292.327393,172.251984 289.348328,171.410980 
	C283.076721,169.640442 280.916260,170.247070 276.706573,175.700043 
	C272.005188,181.789856 264.536469,183.121384 257.536774,179.660507 
	C250.133820,176.000259 242.546158,173.634247 235.489059,180.627731 
	C235.145706,180.967972 234.633316,181.136215 234.203140,181.390488 
	C227.258011,185.495667 221.693237,183.270889 217.084457,176.594147 
	C214.623825,173.029434 209.703201,171.144440 205.822891,168.608398 
	C205.461487,168.372208 204.502533,168.768356 203.976654,169.110245 
	C199.633224,171.934036 198.401489,169.597015 198.007889,165.630722 
	C197.451065,160.019653 196.050949,159.166718 190.601044,160.700714 
	C189.291519,161.069305 187.513657,161.458878 186.495361,160.880600 
	C182.462509,158.590332 177.603561,156.671402 179.221924,150.317505 
	C179.409012,149.583038 178.539932,148.579575 178.051361,147.447983 
	C176.124359,147.834900 174.391830,148.182755 172.748215,148.512772 
	C172.631531,157.359482 172.631531,157.359039 164.146027,157.270111 
	C163.981476,157.268372 163.812378,157.299393 163.652237,157.341278 
	C159.811508,158.345245 159.195084,156.436234 159.112793,153.054474 
	C159.055923,150.716019 158.363342,147.566162 156.762833,146.358276 
	C155.521210,145.421234 152.125168,146.388733 150.244476,147.475143 
	C147.539230,149.037872 145.963043,149.214859 144.112030,146.351334 
	C141.266876,141.949829 138.020691,137.807541 134.364853,132.753754 
	C135.996979,132.409378 137.523956,132.118561 139.035416,131.761917 
	C142.467957,130.951950 145.896194,130.123077 149.319366,129.274414 
	C150.900024,128.882553 152.441299,128.215332 154.040909,128.038010 
	C159.251175,127.460426 160.219009,126.307693 159.908615,121.551247 
	C155.654343,121.104591 151.626907,120.464867 147.587509,120.377281 
	C146.205032,120.347298 144.340988,121.360680 143.486862,122.493126 
	C141.653824,124.923492 139.963409,125.076836 137.576630,123.460564 
	C136.516891,122.742928 135.139114,122.219719 133.870773,122.135712 
	C129.662094,121.856949 127.916763,119.929672 128.444550,115.620354 
	C128.567581,114.615822 127.173004,113.425407 126.476700,112.320518 
	C125.658104,113.334312 124.486938,114.228340 124.093452,115.386559 
	C123.243263,117.889114 122.858711,120.545380 122.161316,123.105431 
	C121.190063,126.670708 119.018600,126.411186 116.460655,124.772713 
	C114.097755,123.259140 111.712486,121.780479 108.340286,119.659515 
	C109.566246,116.963570 110.681168,113.090370 112.877434,109.980934 
	C117.315697,103.697334 116.260536,97.042450 115.154045,90.310753 
	C114.964378,89.156906 113.928963,87.492088 112.962471,87.224197 
	C107.728317,85.773392 108.729660,82.790901 110.046295,78.901749 
	C111.801224,73.717934 109.522575,71.078125 103.970673,71.011482 
	C99.805046,70.961472 95.574776,71.446541 91.491264,70.864975 
	C87.904739,70.354179 84.495720,68.648560 80.980690,67.559799 
	C79.492752,67.098915 77.572540,66.125031 76.472221,66.661926 
	C72.384247,68.656654 69.753815,65.654579 69.714409,63.254452 
	C69.607597,56.749962 66.169426,53.994415 60.780201,51.983791 
	C58.892838,51.279648 57.350010,49.391357 55.907898,47.808678 
	C52.904449,44.512470 50.228252,40.907852 47.117020,37.723640 
	C45.013535,35.570812 44.006008,33.850029 45.738758,30.839478 
	C47.642082,27.532562 46.914604,24.977621 42.379879,24.994659 
	C39.418602,25.005785 38.406128,23.847979 38.728264,20.654533 
	C39.473194,13.269662 37.607586,11.766693 30.089569,13.268019 
	C29.064821,9.198958 28.032412,5.099479 27.000000,1.000000 
M850.770752,160.732391 
	C852.077881,160.558853 853.384949,160.385315 854.692078,160.211777 
	C853.970520,159.039474 853.248901,157.867188 852.527283,156.694885 
	C851.827148,157.839890 851.127014,158.984909 850.770752,160.732391 
M119.343628,108.333374 
	C120.664322,108.560822 121.985023,108.788277 123.305710,109.015724 
	C123.150604,107.870499 122.995499,106.725266 122.840401,105.580040 
	C121.654968,106.260773 120.469536,106.941498 119.343628,108.333374 
M114.213753,84.159149 
	C115.300880,84.212715 116.388008,84.266281 117.475136,84.319839 
	C117.201653,83.162964 116.928169,82.006081 116.654694,80.849205 
	C115.811424,81.723793 114.968155,82.598381 114.213753,84.159149 
M887.321960,150.085358 
	C886.878418,149.272171 886.434875,148.459000 885.991394,147.645828 
	C885.477417,148.155960 884.963440,148.666092 884.449402,149.176239 
	C885.254211,149.617416 886.059021,150.058594 887.321960,150.085358 
M224.197998,175.196579 
	C224.930710,174.836136 225.663406,174.475693 226.396118,174.115234 
	C225.888718,173.608154 225.381317,173.101059 224.873901,172.593979 
	C224.513840,173.326843 224.153793,174.059723 224.197998,175.196579 
M768.850830,83.789742 
	C769.110779,84.050461 769.370789,84.311180 769.630737,84.571915 
	C769.806519,84.371437 769.982300,84.170952 770.158081,83.970467 
	C769.814514,83.812202 769.470947,83.653938 768.850830,83.789742 
M768.704407,182.830383 
	C768.880981,182.957047 769.057495,183.083694 769.234070,183.210358 
	C769.122314,183.024521 769.010559,182.838684 768.704407,182.830383 
M119.095680,117.328979 
	C119.057579,117.115868 119.019470,116.902763 118.981377,116.689651 
	C118.930824,116.899757 118.880272,117.109856 119.095680,117.328979 
z"/>
<path fill="#6187C1" opacity="1.000000" stroke="none" 
	d="
M969.000000,49.531342 
	C965.889832,49.627625 962.696350,48.646866 959.693604,49.058262 
	C956.833862,49.450077 954.230103,51.456951 951.406372,52.447582 
	C949.302429,53.185684 947.027222,53.435520 943.827332,54.115490 
	C942.473145,56.796925 943.217590,58.958672 947.989563,60.926559 
	C951.159058,62.233601 951.680176,64.582390 949.338989,66.058479 
	C944.887695,68.865044 939.913513,70.919220 934.967896,72.786453 
	C934.174194,73.086098 931.559143,70.985596 931.266174,69.666054 
	C930.714294,67.179764 932.456665,66.364197 935.025879,66.655716 
	C936.169250,66.785446 937.451172,65.694984 938.670166,65.158333 
	C937.800537,64.137375 937.051880,62.969002 936.031494,62.131721 
	C934.671143,61.015320 933.157959,60.046009 931.600891,59.220047 
	C930.241394,58.498917 928.730164,58.063766 927.286011,57.502251 
	C927.071289,58.851665 926.812317,60.196148 926.661194,61.552647 
	C926.589722,62.193310 926.724915,62.856995 926.733521,62.992321 
	C923.718445,66.395615 921.026062,69.434708 917.851562,73.017952 
	C917.851562,74.085632 917.868713,76.110420 917.755676,78.127907 
	C917.752747,78.179626 915.677368,78.267410 915.655090,78.143089 
	C915.295715,76.143867 914.785461,74.085777 914.950439,72.094109 
	C915.487976,65.601768 913.406250,63.236652 906.975525,62.949314 
	C903.699463,62.802933 900.455750,61.895081 897.181030,61.773159 
	C895.797791,61.721661 894.411499,62.961510 892.955078,63.336185 
	C891.373474,63.743069 889.708557,63.826351 888.080017,64.050728 
	C888.506958,62.545185 888.835938,61.002270 889.391724,59.545906 
	C889.839172,58.373524 890.560852,57.305805 891.160889,56.191658 
	C889.780334,55.991749 888.318481,55.420975 887.042908,55.700310 
	C885.859924,55.959347 884.870789,57.119518 883.805298,57.895302 
	C880.837646,60.055840 877.896851,62.254040 874.903564,64.378273 
	C871.987061,66.448044 869.185852,68.771843 866.028259,70.385674 
	C862.555725,72.160454 859.164795,73.289146 858.572937,66.960190 
	C858.362183,64.705742 855.261536,62.721542 852.785522,59.792480 
	C850.923706,68.346146 843.549133,66.252777 838.689575,68.789185 
	C836.197388,70.089943 833.744141,71.465218 831.273254,72.806824 
	C831.481018,73.308273 831.688843,73.809723 831.896606,74.311172 
	C831.124146,74.211617 830.341003,74.161537 829.582092,73.998749 
	C828.807373,73.832596 828.056335,73.555794 826.918457,73.214516 
	C826.674072,74.392593 826.305603,75.287430 826.338745,76.167107 
	C826.459534,79.368866 823.058777,82.955307 820.107849,82.219162 
	C819.501709,82.067970 819.079895,79.782509 819.178955,78.528641 
	C819.325195,76.676407 820.546997,74.777618 820.261292,73.074722 
	C820.103455,72.133842 817.855164,71.040192 816.463501,70.906189 
	C812.630188,70.537086 808.732605,70.849281 804.895325,70.504189 
	C798.676697,69.944954 793.410583,72.304253 789.144714,76.263901 
	C787.021301,78.234894 785.499268,79.099937 782.732544,78.493607 
	C778.546570,77.576279 774.300293,76.836624 770.040649,76.417442 
	C768.887634,76.303978 767.348511,77.379539 766.428040,78.334770 
	C765.301697,79.503685 764.639832,81.120186 763.593140,82.846611 
	C764.264465,84.543488 765.107422,86.674217 766.353088,89.822891 
	C762.087219,88.289314 759.445923,84.327438 755.581543,88.068184 
	C753.922546,89.674080 752.585205,90.618721 754.367859,92.853340 
	C757.258423,96.476891 754.809509,98.558777 751.711670,98.589882 
	C747.429138,98.632881 742.879272,98.034225 738.907349,96.505859 
	C733.856323,94.562225 731.133423,94.552414 727.566772,98.620461 
	C724.827271,101.745125 722.462585,105.357582 719.238159,107.860138 
	C714.510254,111.529526 708.614197,112.033905 703.050720,110.270020 
	C698.063416,108.688805 693.651794,108.418381 689.371277,111.700592 
	C688.982666,111.998581 688.401123,112.434532 688.047913,112.331390 
	C681.456970,110.406494 674.640991,114.552750 668.087219,111.577003 
	C667.380066,111.255928 666.439026,111.120262 665.688477,111.281166 
	C662.246826,112.018921 656.215332,118.579506 656.083801,122.168808 
	C655.933350,126.274956 653.714478,127.786087 650.078186,127.938683 
	C647.751587,128.036301 645.350647,128.254288 643.099365,127.817986 
	C639.558167,127.131691 636.482361,126.551918 635.361755,131.280045 
	C635.195496,131.981812 633.193542,132.981003 632.605652,132.692307 
	C631.506226,132.152466 630.825439,130.765488 629.961914,129.738159 
	C629.281067,128.928146 628.628723,127.535500 627.888245,127.483856 
	C627.068848,127.426697 625.531494,128.489349 625.395935,129.256668 
	C624.342285,135.222656 619.561279,135.313354 615.175781,135.970032 
	C607.645081,137.097672 600.919250,134.066315 594.147400,131.548798 
	C593.189819,131.192810 592.470825,129.639114 592.050720,128.490143 
	C590.265442,123.607964 588.554626,123.076118 584.543396,126.042725 
	C583.521179,126.798706 581.592102,127.547470 580.784546,127.080536 
	C579.655029,126.427399 578.677307,124.684807 578.532227,123.313370 
	C578.122559,119.440659 575.746155,117.795380 572.344604,119.688423 
	C570.946655,120.466400 569.226135,121.722763 568.847595,123.091980 
	C567.185852,129.102371 563.896240,128.282043 559.100037,126.750534 
	C551.931458,124.461472 544.456116,122.888687 536.993286,121.919456 
	C534.832947,121.638893 532.268799,124.467812 529.177490,126.291435 
	C525.014160,123.877762 520.058167,120.974770 515.065979,118.135361 
	C514.062744,117.564781 512.930969,116.881378 511.843353,116.854256 
	C505.777435,116.702965 500.422516,115.803452 495.427948,111.278679 
	C493.387512,109.430176 487.967560,111.323524 484.084106,111.490822 
	C482.942535,111.539993 481.533997,111.946686 480.695618,111.443474 
	C474.020264,107.436859 466.477417,109.145348 459.396820,107.927330 
	C456.406158,107.412865 453.460388,106.335693 450.648560,105.148659 
	C445.322510,102.900269 440.254333,100.063591 434.053802,101.437630 
	C427.207153,102.954849 420.826843,102.662331 416.366882,95.934845 
	C413.839844,92.123009 410.490936,92.845215 408.124542,95.874413 
	C405.413757,99.344414 402.461609,98.952553 398.801147,98.260529 
	C392.343262,97.039673 385.789001,96.327850 379.273590,95.413345 
	C378.302490,95.277023 376.924011,95.575684 376.409943,95.032898 
	C371.410126,89.753929 364.584930,91.357643 358.534119,90.355408 
	C356.464081,90.012527 353.778503,91.188225 351.881256,92.439163 
	C347.380310,95.406845 343.824829,100.297745 337.442993,98.939316 
	C336.067139,98.646454 334.034424,98.224884 333.601776,97.272911 
	C331.739105,93.174408 328.739807,91.635117 324.429688,91.873833 
	C323.509064,91.924820 322.117096,91.608772 321.679199,90.962494 
	C317.610291,84.957062 310.502075,87.602272 305.162109,85.137535 
	C302.911865,84.098900 299.782684,84.964523 296.270813,84.964523 
	C296.232574,84.443703 295.829834,82.821747 296.053894,81.291557 
	C296.750488,76.533653 293.191803,74.461159 290.257935,72.195610 
	C289.650787,71.726791 287.600159,72.982521 286.288177,73.599380 
	C282.806763,75.236229 279.427582,77.117477 275.856110,78.513504 
	C275.133850,78.795807 273.233582,77.603081 272.808807,76.667183 
	C272.398560,75.763290 272.817505,73.986069 273.531403,73.167213 
	C275.287506,71.152870 276.403290,69.423798 273.776825,67.338898 
	C271.658813,65.657616 269.653229,64.224464 267.678009,67.625320 
	C267.348846,68.192101 266.026764,68.182198 265.163483,68.438774 
	C264.912781,67.554878 264.368713,66.631706 264.480530,65.796356 
	C264.645752,64.562531 265.277344,63.391155 266.303192,60.553085 
	C259.128479,62.565884 253.159271,64.149025 247.246658,65.921043 
	C238.755676,68.465790 230.552292,69.183083 223.093018,63.059471 
	C222.359756,62.457489 221.330978,62.156803 220.391693,61.875473 
	C217.615616,61.043995 216.710159,59.626019 217.843796,56.656509 
	C220.013779,50.972313 218.971268,48.552002 214.243942,44.547226 
	C212.873505,43.386269 211.443420,41.045357 211.662994,39.471741 
	C212.676849,32.206257 206.620071,28.706808 203.315262,24.040226 
	C202.238052,22.519114 196.924927,23.939007 193.555634,24.128962 
	C192.218292,24.204359 190.389572,25.229227 189.699387,24.677473 
	C188.832077,23.984118 189.072159,22.044691 188.530090,20.772644 
	C187.721893,18.876120 187.098892,16.224426 185.592911,15.442119 
	C182.446136,13.807467 178.806564,13.052447 175.307999,12.183350 
	C171.786560,11.308566 168.209442,10.201798 164.814560,12.928580 
	C164.074753,13.522798 162.546021,13.605884 161.557678,13.317543 
	C159.728470,12.783880 155.539536,3.851045 155.931564,1.350151 
	C427.000000,1.000000 698.000000,1.000000 969.000000,1.000000 
	C969.000000,17.078943 969.000000,33.070812 969.000000,49.531342 
z"/>
<path fill="#6C92CD" opacity="1.000000" stroke="none" 
	d="
M26.531334,1.000000 
	C28.032412,5.099479 29.064821,9.198958 30.089569,13.268019 
	C37.607586,11.766693 39.473194,13.269662 38.728264,20.654533 
	C38.406128,23.847979 39.418602,25.005785 42.379879,24.994659 
	C46.914604,24.977621 47.642082,27.532562 45.738758,30.839478 
	C44.006008,33.850029 45.013535,35.570812 47.117020,37.723640 
	C50.228252,40.907852 52.904449,44.512470 55.907898,47.808678 
	C57.350010,49.391357 58.892838,51.279648 60.780201,51.983791 
	C66.169426,53.994415 69.607597,56.749962 69.714409,63.254452 
	C69.753815,65.654579 72.384247,68.656654 76.472221,66.661926 
	C77.572540,66.125031 79.492752,67.098915 80.980690,67.559799 
	C84.495720,68.648560 87.904739,70.354179 91.491264,70.864975 
	C95.574776,71.446541 99.805046,70.961472 103.970673,71.011482 
	C109.522575,71.078125 111.801224,73.717934 110.046295,78.901749 
	C108.729660,82.790901 107.728317,85.773392 112.962471,87.224197 
	C113.928963,87.492088 114.964378,89.156906 115.154045,90.310753 
	C116.260536,97.042450 117.315697,103.697334 112.877434,109.980934 
	C110.681168,113.090370 109.566246,116.963570 108.340286,119.659515 
	C111.712486,121.780479 114.097755,123.259140 116.460655,124.772713 
	C119.018600,126.411186 121.190063,126.670708 122.161316,123.105431 
	C122.858711,120.545380 123.243263,117.889114 124.093452,115.386559 
	C124.486938,114.228340 125.658104,113.334312 126.476700,112.320518 
	C127.173004,113.425407 128.567581,114.615822 128.444550,115.620354 
	C127.916763,119.929672 129.662094,121.856949 133.870773,122.135712 
	C135.139114,122.219719 136.516891,122.742928 137.576630,123.460564 
	C139.963409,125.076836 141.653824,124.923492 143.486862,122.493126 
	C144.340988,121.360680 146.205032,120.347298 147.587509,120.377281 
	C151.626907,120.464867 155.654343,121.104591 159.908615,121.551247 
	C160.219009,126.307693 159.251175,127.460426 154.040909,128.038010 
	C152.441299,128.215332 150.900024,128.882553 149.319366,129.274414 
	C145.896194,130.123077 142.467957,130.951950 139.035416,131.761917 
	C137.523956,132.118561 135.996979,132.409378 134.364853,132.753754 
	C138.020691,137.807541 141.266876,141.949829 144.112030,146.351334 
	C145.963043,149.214859 147.539230,149.037872 150.244476,147.475143 
	C152.125168,146.388733 155.521210,145.421234 156.762833,146.358276 
	C158.363342,147.566162 159.055923,150.716019 159.112793,153.054474 
	C159.195084,156.436234 159.811508,158.345245 163.652237,157.341278 
	C163.812378,157.299393 163.981476,157.268372 164.146027,157.270111 
	C172.631531,157.359039 172.631531,157.359482 172.748215,148.512772 
	C174.391830,148.182755 176.124359,147.834900 178.051361,147.447983 
	C178.539932,148.579575 179.409012,149.583038 179.221924,150.317505 
	C177.603561,156.671402 182.462509,158.590332 186.495361,160.880600 
	C187.513657,161.458878 189.291519,161.069305 190.601044,160.700714 
	C196.050949,159.166718 197.451065,160.019653 198.007889,165.630722 
	C198.401489,169.597015 199.633224,171.934036 203.976654,169.110245 
	C204.502533,168.768356 205.461487,168.372208 205.822891,168.608398 
	C209.703201,171.144440 214.623825,173.029434 217.084457,176.594147 
	C221.693237,183.270889 227.258011,185.495667 234.203140,181.390488 
	C234.633316,181.136215 235.145706,180.967972 235.489059,180.627731 
	C242.546158,173.634247 250.133820,176.000259 257.536774,179.660507 
	C264.536469,183.121384 272.005188,181.789856 276.706573,175.700043 
	C280.916260,170.247070 283.076721,169.640442 289.348328,171.410980 
	C292.327393,172.251984 295.528687,172.286865 298.534760,173.056320 
	C301.635406,173.850021 304.721893,174.874817 307.621490,176.215897 
	C309.521057,177.094452 325.222961,176.817261 326.273224,175.043274 
	C330.751465,167.478821 336.933441,166.180450 344.372375,169.842010 
	C348.295380,163.478867 348.739502,163.194809 354.100372,164.028061 
	C352.801208,165.802246 351.723846,167.273544 349.704834,170.030823 
	C352.659149,170.195740 354.897339,170.776306 356.890564,170.309921 
	C359.094482,169.794235 361.095917,168.360245 363.146057,167.253143 
	C365.883881,165.774673 367.703552,166.584869 370.616943,168.017197 
	C375.476624,170.406387 379.313141,176.560577 385.905975,174.125000 
	C388.317169,173.234222 390.267426,171.095856 392.235107,169.666733 
	C393.987854,170.599258 396.067444,172.580505 397.377380,172.160614 
	C398.731934,171.726440 399.339142,168.960617 400.553314,166.691345 
	C402.267365,166.275223 404.839966,165.650681 406.212036,165.317581 
	C409.728119,165.317581 412.063995,165.343933 414.398926,165.308075 
	C415.889587,165.285187 417.384888,165.231537 418.867401,165.083969 
	C422.075439,164.764618 425.372803,164.737534 428.454620,163.917953 
	C431.793579,163.029984 433.674316,162.900040 434.224396,167.186783 
	C434.903412,172.478760 440.387024,175.710236 445.668365,174.189560 
	C449.212769,173.169006 451.662384,173.561981 455.181458,175.604874 
	C458.720154,177.659180 463.247986,181.060898 468.518311,178.329651 
	C469.937927,177.593994 472.536530,177.610077 473.830597,178.452988 
	C477.154572,180.618027 480.393280,181.108948 484.198059,180.282852 
	C486.683990,179.743103 489.326599,179.877365 491.901642,179.808685 
	C494.486084,179.739731 497.073792,179.793518 500.426514,179.793518 
	C499.244812,178.268997 498.468414,177.267349 497.575348,176.115204 
	C498.114441,175.807358 498.517517,175.372040 498.894653,175.393524 
	C502.734924,175.611908 506.782654,174.874863 509.908081,178.240234 
	C510.524200,178.903656 512.350220,179.170853 513.207092,178.761047 
	C517.605347,176.657562 522.593750,180.766113 526.958313,177.315582 
	C527.498352,176.888611 529.940552,178.626328 531.348694,179.585068 
	C535.164246,182.182968 538.897583,184.901459 542.663574,187.572128 
	C543.092712,187.218079 543.521912,186.864044 543.951111,186.509995 
	C543.648499,187.434830 543.345947,188.359665 542.476318,191.017639 
	C545.247925,189.355484 547.020874,188.600235 548.408142,187.399429 
	C551.813599,184.451599 555.528381,183.974701 556.850037,187.196915 
	C560.104065,195.129990 567.076721,194.116592 572.903931,193.629471 
	C579.941284,193.041229 586.048401,193.178726 591.338257,198.518219 
	C592.097107,199.284210 594.982422,199.105377 595.966309,198.275803 
	C599.353577,195.419785 603.008850,192.418762 601.199158,186.391464 
	C603.938538,186.391464 606.320190,185.864532 608.339355,186.496170 
	C613.229126,188.025726 618.514893,189.311890 622.543823,192.217606 
	C625.310181,194.212738 626.264954,198.745483 627.970398,202.173325 
	C628.664612,203.568481 629.202332,205.041519 629.811218,206.479111 
	C631.245056,205.589798 633.094543,205.010101 634.032349,203.751251 
	C636.527344,200.402237 637.905823,199.165039 643.060364,201.310333 
	C649.649536,204.052719 655.590698,210.285583 663.987671,208.036011 
	C668.927734,206.712555 674.141907,206.269745 678.917786,204.553925 
	C680.599243,203.949829 681.343079,200.736008 682.409241,198.896225 
	C687.668457,200.735977 692.803894,202.627777 698.019958,204.262146 
	C698.877808,204.530930 700.421692,203.978561 701.078613,203.274231 
	C703.451050,200.730362 705.776855,201.493057 708.277344,202.880005 
	C713.813416,205.950699 718.743713,204.946365 724.124573,201.576614 
	C729.203857,198.395660 735.098816,196.541077 740.518372,193.866684 
	C742.454834,192.911072 744.049805,191.263336 745.257202,190.344894 
	C748.910950,190.615738 753.126465,189.663193 755.404114,191.341110 
	C761.526123,195.851151 766.671631,193.659943 772.429138,191.179916 
	C774.105652,190.457748 777.052612,190.977432 778.624695,192.069138 
	C782.083862,194.471344 784.684143,192.792496 787.880188,191.678131 
	C794.589722,189.338730 801.499146,187.564835 808.347107,185.632080 
	C814.741150,183.827484 820.592957,180.903290 826.577820,178.051834 
	C832.015991,175.460861 837.727295,171.472580 844.695984,173.762268 
	C846.335144,174.300842 848.614807,174.109207 850.181152,173.368378 
	C852.607300,172.220856 854.591187,170.429153 857.547302,172.246857 
	C857.876465,172.449265 860.380249,170.283127 860.738586,168.917130 
	C861.050842,167.726730 859.756775,166.115005 859.132812,164.592468 
	C862.775940,164.592468 866.332336,164.592468 869.034729,164.592468 
	C870.401428,167.193985 871.021790,170.450104 872.775146,171.263290 
	C876.029541,172.772598 879.962830,172.979385 882.658447,169.296219 
	C882.934448,168.919006 883.463379,168.476303 883.868835,168.482193 
	C889.641174,168.566177 892.250793,165.633972 892.555603,160.003067 
	C892.585693,159.448059 894.988953,159.159607 896.142334,158.491318 
	C897.487122,157.712112 899.668213,156.729401 899.748840,155.699081 
	C900.106445,151.126938 902.952209,150.575500 906.381531,151.110016 
	C910.656494,151.776337 914.732544,153.091202 918.050537,148.525925 
	C918.933899,147.310471 921.753357,147.264557 923.716919,147.114746 
	C930.590515,146.590363 937.475037,146.095123 944.363281,145.939087 
	C946.623718,145.887894 948.958130,146.751740 951.165894,147.478897 
	C952.885925,148.045410 954.389343,149.350616 956.123718,149.769196 
	C957.726135,150.155960 959.507690,149.800385 961.210327,149.771759 
	C960.808899,148.293198 960.615295,146.715317 959.965393,145.355469 
	C958.304260,141.879425 959.568359,140.295380 963.112427,140.052948 
	C964.771301,139.939453 966.442932,140.011841 968.554382,140.000000 
	C969.000000,164.687561 969.000000,189.375122 969.000000,214.531342 
	C966.471252,214.001648 963.942566,213.003281 961.029053,211.852997 
	C962.525024,217.690720 961.236206,221.581894 957.851257,222.685547 
	C954.377136,223.818298 949.350159,220.111969 946.747437,214.134750 
	C945.640259,214.784332 944.354736,215.191544 943.582214,216.056763 
	C941.264832,218.652374 939.661194,222.930771 935.159180,218.877930 
	C931.828186,222.169724 929.977112,218.084961 927.441650,217.618073 
	C924.243408,217.029144 920.143005,217.821381 917.343994,219.520477 
	C914.224487,221.414169 912.072937,224.947571 909.604065,227.855576 
	C907.008850,230.912399 905.090393,230.539780 903.141113,227.124771 
	C902.343079,225.726562 899.937988,223.605042 899.682495,223.788406 
	C896.726196,225.910858 891.814941,222.265396 889.840637,227.657364 
	C887.383911,234.366928 882.867615,235.940552 876.596985,232.600037 
	C872.515930,230.425934 871.259827,231.589920 870.963013,235.767502 
	C870.586609,241.065094 869.988037,241.079819 864.801270,239.809479 
	C862.479309,239.240784 859.730225,240.068787 857.255066,240.621490 
	C856.041626,240.892456 855.061462,242.494095 853.888672,242.609543 
	C849.630981,243.028656 848.256104,244.438446 850.432190,248.686264 
	C851.793335,251.343277 850.714783,253.796249 847.301636,253.900421 
	C842.091980,254.059494 836.872375,253.870178 831.657776,253.915024 
	C830.753845,253.922775 829.719849,254.147507 828.972046,254.625671 
	C819.327026,260.793091 819.337402,260.809326 811.025818,253.378922 
	C806.393860,249.238068 795.469055,250.167206 790.800903,253.951752 
	C785.499878,258.249420 779.097412,261.164337 773.613464,265.268005 
	C768.793152,268.875153 764.164124,268.178833 758.766174,267.213745 
	C751.664001,265.943939 750.359924,267.227325 747.225525,273.796570 
	C746.729858,274.835480 746.267151,275.970673 745.495911,276.782776 
	C742.994385,279.416748 740.804138,278.895233 740.032349,275.310638 
	C739.037354,270.689880 736.804810,269.632080 732.500183,271.554565 
	C729.813293,272.754547 726.689270,272.969818 723.988953,274.148254 
	C722.397766,274.842651 720.568176,276.323242 720.045166,277.858765 
	C718.916626,281.172058 716.977356,282.276672 713.693848,282.023132 
	C708.996765,281.660370 704.353699,282.583740 699.768250,279.632751 
	C697.361572,278.083923 693.289856,279.142303 689.971924,278.985016 
	C684.612305,278.730988 683.147766,276.172760 685.130737,271.170624 
	C685.364258,270.581482 683.919006,268.702026 682.943848,268.393036 
	C681.107849,267.811249 678.845703,268.411804 677.119812,267.677216 
	C672.902039,265.882019 669.745850,265.780029 665.917175,269.354706 
	C663.893433,271.244141 659.314941,271.025299 655.980225,270.731842 
	C651.268433,270.317230 643.646179,262.060303 643.009338,257.289246 
	C642.653076,254.620346 641.449097,253.753983 638.983032,254.557999 
	C637.414429,255.069412 635.887268,255.707642 633.931396,256.443237 
	C632.500549,250.213226 628.978027,250.287628 624.522156,253.423248 
	C624.017761,253.778183 623.247864,253.909378 622.607056,253.894119 
	C611.140259,253.621445 599.670776,253.391663 588.213013,252.896347 
	C586.888489,252.839096 584.987183,251.543350 584.454285,250.335861 
	C582.389893,245.658569 578.591553,243.960449 574.027893,244.101395 
	C569.457214,244.242569 565.965759,242.581680 562.933533,239.440674 
	C562.586853,239.081558 562.260681,238.563385 561.833313,238.442062 
	C553.436157,236.058289 545.320312,231.552780 536.146606,235.976257 
	C532.686096,237.644913 529.024780,238.283401 526.074158,234.057358 
	C524.308167,231.527985 521.522644,229.649109 518.986023,227.758789 
	C518.279724,227.232452 516.583557,227.304642 515.763794,227.800446 
	C513.516357,229.159729 511.110870,230.568756 509.457001,232.537064 
	C505.346558,237.429062 500.897125,238.199203 495.080566,235.562241 
	C491.976166,234.154846 488.226929,234.152298 484.759888,233.568283 
	C482.377869,233.167068 479.847778,233.226685 477.618256,232.426895 
	C473.178345,230.834213 469.029785,230.279419 464.656555,232.746872 
	C462.859955,233.760544 460.535767,233.819794 458.469666,234.379944 
	C455.770447,235.111725 454.545959,234.110947 453.979797,231.360016 
	C452.824768,225.747162 451.056824,224.891785 445.634094,226.241898 
	C438.402527,228.042358 431.111450,229.602707 423.854919,231.304489 
	C419.844238,232.245071 416.269073,232.456314 412.651215,229.376068 
	C411.560181,228.447189 407.456818,229.692841 405.750275,231.140884 
	C402.429108,233.958893 399.124390,234.564102 395.216980,233.522552 
	C393.761932,225.102371 386.599854,222.072891 378.470428,224.105682 
	C372.481415,225.603271 365.684509,227.249893 359.334412,223.264755 
	C357.649841,222.207565 354.546509,222.548767 352.426117,223.250183 
	C349.229858,224.307449 346.325165,226.246109 342.601013,228.169312 
	C342.601013,225.243500 342.601013,223.126968 342.601013,219.873459 
	C340.803436,221.924088 339.777924,223.093948 339.728699,223.150101 
	C332.570557,222.048996 326.356812,221.035080 320.118835,220.202789 
	C319.282593,220.091202 318.217255,220.747711 317.439972,221.303162 
	C313.463867,224.144455 309.547363,227.069229 304.723236,230.617035 
	C304.622192,236.200943 297.911774,240.842987 290.663025,241.044525 
	C287.167358,241.141724 283.731598,245.320953 280.390106,247.814499 
	C279.440948,248.522812 278.918793,249.803329 277.869171,251.291702 
	C275.770050,248.525436 273.073547,246.570724 278.101715,244.824341 
	C279.030884,244.501633 279.585602,243.100906 280.313110,242.197723 
	C279.294220,241.510132 278.123230,240.076370 277.279541,240.248322 
	C266.778503,242.388763 255.597977,239.239014 245.446518,244.366608 
	C244.356964,244.916962 241.766830,244.417343 241.083054,243.501343 
	C238.736465,240.357834 236.083786,241.189896 233.026123,241.760605 
	C227.719391,242.751083 222.329880,243.297104 216.975967,244.035904 
	C212.275421,244.684555 209.019455,242.667648 206.676971,238.683960 
	C204.527222,235.028091 201.293488,233.518982 197.002625,233.959900 
	C193.434586,234.326508 190.588409,233.591675 189.405319,229.334457 
	C188.523666,226.161957 180.675507,225.016876 176.619263,225.894272 
	C170.901184,227.131088 164.942154,230.816513 159.095383,225.917953 
	C158.543091,225.455231 157.463852,225.226883 156.759399,225.404846 
	C152.447556,226.494141 151.363541,223.761597 151.096451,220.499710 
	C150.844269,217.420074 149.476181,216.257690 146.421082,215.912247 
	C141.980164,215.410110 137.451599,214.783401 133.238586,213.376694 
	C126.941727,211.274170 123.708542,205.515854 121.362068,200.034882 
	C119.698860,196.149933 117.848122,194.777542 114.104836,195.008133 
	C109.935478,195.264969 106.174789,194.518585 103.261276,190.764725 
	C103.998566,189.507492 104.716888,188.282593 105.678154,186.643448 
	C104.601715,186.074463 103.618385,185.079010 102.743904,185.166870 
	C94.964714,185.948532 91.319977,182.130173 89.355255,174.896179 
	C88.652809,172.309784 85.204330,170.332260 82.756500,168.396393 
	C80.432999,166.558853 79.770271,164.600449 82.049866,162.659927 
	C85.811119,159.458145 84.169792,155.605118 83.553032,152.028687 
	C83.089699,149.341904 82.086441,146.538101 80.549667,144.323410 
	C79.589951,142.940338 77.192383,142.555008 74.571556,141.309067 
	C73.957924,138.420883 72.064087,135.660873 67.226730,135.653412 
	C66.152718,135.651749 64.473709,132.815170 64.134499,131.076813 
	C63.349842,127.055641 63.214993,122.907669 62.776352,118.396873 
	C60.180832,118.930763 58.218681,119.334366 55.402988,119.913544 
	C56.410183,117.754814 57.426041,116.377380 57.638325,114.885612 
	C57.830200,113.537216 57.325516,111.991676 56.797321,110.664688 
	C56.192345,109.144791 55.222744,107.770035 54.258327,106.060623 
	C48.606247,104.951653 42.185600,103.691879 35.552208,102.390366 
	C33.391838,97.404472 27.075941,94.679825 20.743959,96.786133 
	C16.889940,98.068161 15.463774,96.759972 15.037277,93.174530 
	C13.897593,83.593529 10.907536,82.366089 3.041398,88.204758 
	C2.650505,88.494896 2.143240,88.628258 1.345080,88.917313 
	C1.000000,59.779694 1.000000,30.559383 1.000000,1.000000 
	C9.351165,1.000000 17.706917,1.000000 26.531334,1.000000 
z"/>
<path fill="#6C92CD" opacity="1.000000" stroke="none" 
	d="
M889.194519,304.182678 
	C897.444275,295.660217 907.856567,296.197083 918.073730,296.232208 
	C919.181519,296.236023 920.607910,297.241699 921.339233,298.200165 
	C926.961304,305.568420 932.480164,313.016541 937.943665,320.503601 
	C938.802002,321.679901 939.434631,323.121674 939.805298,324.536652 
	C941.947021,332.713440 939.090942,338.638855 931.032654,343.289581 
	C929.043579,344.437561 927.029297,345.665344 925.353333,347.210754 
	C918.420593,353.603241 905.842041,354.431549 898.834290,348.007599 
	C891.336731,341.134644 885.161011,333.327118 883.682678,322.504364 
	C882.713501,315.408234 885.185120,309.882843 889.194519,304.182678 
z"/>
<path fill="#6C92CD" opacity="1.000000" stroke="none" 
	d="
M263.075073,253.241730 
	C256.210236,257.588898 250.381287,257.452881 247.476074,252.459473 
	C249.501068,252.288757 251.214859,251.985138 252.918793,252.032898 
	C256.781586,252.141190 259.664642,251.700348 261.534912,247.229187 
	C263.251099,243.126358 267.259003,245.275574 271.703217,245.799698 
	C268.253540,248.786407 265.811920,250.900314 263.075073,253.241730 
z"/>
<path fill="#79A0D7" opacity="1.000000" stroke="none" 
	d="
M211.139267,322.184082 
	C215.760880,318.870178 218.647339,321.544098 222.821350,325.130432 
	C216.928146,325.130432 212.383621,325.130432 207.839111,325.130432 
	C207.761230,324.769043 207.683365,324.407623 207.605484,324.046234 
	C208.681320,323.485779 209.757156,322.925354 211.139267,322.184082 
z"/>
<path fill="#6C92CD" opacity="1.000000" stroke="none" 
	d="
M52.523495,114.597122 
	C52.872959,115.970245 53.161781,118.100945 52.949291,118.152168 
	C51.016373,118.618156 48.996052,118.721550 46.717319,118.960777 
	C46.790985,114.129501 48.252205,112.458031 52.523495,114.597122 
z"/>
<path fill="#6C92CD" opacity="1.000000" stroke="none" 
	d="
M799.316772,256.911530 
	C798.673096,257.916779 798.080383,259.001648 797.310242,259.147064 
	C796.198669,259.356934 794.883850,259.060822 793.814758,258.606506 
	C793.454346,258.453339 793.251221,256.670746 793.540222,256.477814 
	C794.525879,255.819916 795.751526,255.258072 796.907715,255.211624 
	C797.681763,255.180542 798.493530,256.085358 799.316772,256.911530 
z"/>
<path fill="#6C92CD" opacity="1.000000" stroke="none" 
	d="
M794.896606,264.102203 
	C795.866089,264.184387 796.629883,264.482544 797.393616,264.780670 
	C796.782349,265.386414 796.171143,265.992157 795.559937,266.597900 
	C795.270203,265.837982 794.980530,265.078064 794.896606,264.102203 
z"/>
<path fill="#6C92CD" opacity="1.000000" stroke="none" 
	d="
M310.649048,239.601318 
	C309.861816,239.285324 309.341980,238.862228 308.822144,238.439148 
	C309.479462,238.135712 310.136749,237.832260 310.794006,237.528809 
	C310.834839,238.183945 310.875671,238.839081 310.649048,239.601318 
z"/>
<path fill="#6C92CD" opacity="1.000000" stroke="none" 
	d="
M382.676147,228.962708 
	C382.890350,228.880432 383.100067,228.930893 383.309753,228.981354 
	C383.097046,229.019379 382.884369,229.057404 382.676147,228.962708 
z"/>
<path fill="#6C92CD" opacity="1.000000" stroke="none" 
	d="
M242.037323,253.676117 
	C242.119614,253.890335 242.069153,254.100037 242.018677,254.309753 
	C241.980652,254.097031 241.942627,253.884323 242.037323,253.676117 
z"/>
<path fill="#79A0D7" opacity="1.000000" stroke="none" 
	d="
M305.677490,292.962830 
	C305.890839,292.880920 306.099670,292.931213 306.308502,292.981506 
	C306.096649,293.019348 305.884827,293.057159 305.677490,292.962830 
z"/>
<path fill="#6C92CD" opacity="1.000000" stroke="none" 
	d="
M850.598877,160.431152 
	C851.127014,158.984909 851.827148,157.839890 852.527283,156.694885 
	C853.248901,157.867188 853.970520,159.039474 854.692078,160.211792 
	C853.384949,160.385315 852.077881,160.558853 850.598877,160.431152 
z"/>
<path fill="#6C92CD" opacity="1.000000" stroke="none" 
	d="
M119.313866,107.977798 
	C120.469536,106.941498 121.654968,106.260773 122.840393,105.580040 
	C122.995499,106.725266 123.150604,107.870499 123.305710,109.015724 
	C121.985023,108.788277 120.664322,108.560822 119.313866,107.977798 
z"/>
<path fill="#6C92CD" opacity="1.000000" stroke="none" 
	d="
M114.169312,83.816055 
	C114.968155,82.598381 115.811424,81.723793 116.654694,80.849205 
	C116.928169,82.006081 117.201653,83.162964 117.475136,84.319839 
	C116.388008,84.266281 115.300880,84.212715 114.169312,83.816055 
z"/>
<path fill="#6C92CD" opacity="1.000000" stroke="none" 
	d="
M887.092896,150.292572 
	C886.059021,150.058594 885.254211,149.617416 884.449402,149.176239 
	C884.963440,148.666092 885.477417,148.155960 885.991394,147.645828 
	C886.434875,148.459000 886.878418,149.272171 887.092896,150.292572 
z"/>
<path fill="#6C92CD" opacity="1.000000" stroke="none" 
	d="
M223.995865,174.994598 
	C224.153793,174.059723 224.513840,173.326843 224.873901,172.593979 
	C225.381317,173.101059 225.888718,173.608154 226.396118,174.115234 
	C225.663406,174.475693 224.930710,174.836136 223.995865,174.994598 
z"/>
<path fill="#6187C1" opacity="1.000000" stroke="none" 
	d="
M768.989136,83.642715 
	C769.470947,83.653938 769.814514,83.812202 770.158081,83.970467 
	C769.982300,84.170952 769.806519,84.371437 769.630737,84.571907 
	C769.370789,84.311180 769.110779,84.050461 768.989136,83.642715 
z"/>
<path fill="#6C92CD" opacity="1.000000" stroke="none" 
	d="
M768.801636,182.741608 
	C769.010559,182.838684 769.122314,183.024521 769.234070,183.210358 
	C769.057495,183.083694 768.880981,182.957047 768.801636,182.741608 
z"/>
<path fill="#6C92CD" opacity="1.000000" stroke="none" 
	d="
M118.962700,117.324471 
	C118.880272,117.109856 118.930824,116.899757 118.981369,116.689651 
	C119.019470,116.902763 119.057579,117.115868 118.962700,117.324471 
z"/>
</svg>